<svg width="519" height="163" viewBox="0 0 519 163" fill="none" xmlns="http://www.w3.org/2000/svg">
<path d="M0.330078 332.271C79.4983 302.082 156.77 295.132 238.655 319.498C314.261 341.992 379.179 387.416 450.53 419.553C534.799 457.513 621.374 490.805 713.587 460.566C860.057 412.526 948.221 282.076 1067.76 195.538C1261.31 55.3932 1317.61 354.124 1476.51 394.418C1556.96 414.808 1603.58 355.688 1671.99 328.654C1764.43 292.105 1850.8 360.331 1922.51 412.013" stroke="url(#paint0_linear_6_10303)" stroke-miterlimit="10"/>
<path d="M0.330078 298.697C71.5789 266.405 142.571 256.351 217.818 281.589C291.938 306.443 352.14 358.766 420.416 394.982C499.841 437.123 581.572 479.417 672.965 452.435C826.201 407.242 922.387 260.737 1041.31 165.939C1244.08 4.27526 1277.73 329.372 1443.86 366.794C1529.1 386.005 1582.18 317.446 1655.38 290.72C1753.85 254.786 1848.29 333.297 1922.48 388.236" stroke="url(#paint1_linear_6_10303)" stroke-miterlimit="10"/>
<path d="M0.330078 266.815C164.997 178.327 263.899 283 398.016 367.589C474.186 415.629 556.199 471.21 649.54 440.278C800.7 390.186 900.141 239.577 1014.73 139.418C1088.69 74.7837 1159.51 59.7791 1222.86 141.547C1277.81 212.44 1313.1 314.548 1410.88 335.092C1496.02 352.969 1556.14 282.795 1629.19 254.196C1736.67 212.081 1843.09 304.16 1922.51 364.511" stroke="url(#paint2_linear_6_10303)" stroke-miterlimit="10"/>
<path d="M0.330078 237.165C159.82 136.853 259.209 241.013 384.997 335.554C452.094 385.979 528.058 455.821 618.708 432.147C673.888 417.732 722.814 376.771 764.948 340.607C845.936 271.124 913.161 189.151 990.048 115.745C1063.76 45.3645 1136.42 17.6639 1199.62 110.512C1246.72 179.712 1282.86 286.616 1377.56 301.723C1467.59 316.087 1533.49 238.781 1612.45 212.055C1726.35 173.48 1841.16 277.152 1922.51 340.709" stroke="url(#paint3_linear_6_10303)" stroke-miterlimit="10"/>
<path d="M0.330078 210.286C62.5062 165.529 131.115 137.443 206.875 164.708C274.33 188.997 326.768 245.424 378.615 292.438C437.049 345.429 510.861 439.508 600.563 421.015C651.052 410.602 695.467 371.924 733.193 338.991C816.462 266.277 889.454 182.046 964.316 101.022C1034.39 25.1533 1112.04 -29.4271 1177.4 76.1686C1221.4 147.241 1255.56 259.659 1355.36 263.609C1443.94 267.123 1510.5 196.333 1590.33 170.222C1712.79 130.185 1837.01 247.861 1922.54 316.984" stroke="url(#paint4_linear_6_10303)" stroke-miterlimit="10"/>
<path d="M0.330078 185.612C64.1465 135.853 135.242 102.818 215.845 131.493C283.864 155.68 340.197 210.824 390.481 260.403C442.765 311.983 512.937 413.295 598.538 396.008C646.439 386.338 688.573 347.583 723.89 316.138C804.647 244.193 876.767 162.169 949.733 82.5807C1016.55 9.7128 1095.02 -56.7174 1161.3 48.391C1204.67 117.155 1237.6 226.906 1335.53 228.265C1423.33 229.471 1496.56 165.683 1578.54 143.83C1706.15 109.794 1830.86 221.366 1922.51 292.644" stroke="url(#paint5_linear_6_10303)" stroke-miterlimit="10"/>
<path d="M0.330078 158.116C70.7331 102.689 145.852 72.8857 231.914 111.359C303.086 143.189 365.416 203.412 420.493 256.736C469.906 304.596 531.134 385.364 609.046 360.202C656.588 344.839 697.928 303.801 733.398 270.817C804.493 204.72 870.565 133.134 937.636 63.0109C1001.56 -3.85525 1079.11 -68.9003 1147.82 24.3327C1196.7 90.6602 1227.81 196.743 1325.38 201.591C1412.29 205.9 1496.32 148.524 1580.11 133.134C1706.82 109.845 1824.66 197.256 1922.54 264.61" stroke="url(#paint6_linear_6_10303)" stroke-miterlimit="10"/>
<path d="M0.330078 127.569C76.0384 69.7566 153.182 44.3387 241.628 89.9933C309.391 124.953 371.926 181.251 427.669 232.626C479.619 280.512 543.41 363.024 621.912 326.5C662.893 307.443 696.621 271.15 728.811 240.449C796.523 175.814 860.57 107.281 926.693 41.0556C995.097 -27.452 1072.6 -80.5705 1143.57 10.508C1192.42 73.2191 1227.6 171.941 1320.23 176.045C1405.44 179.841 1490.1 138.982 1573.26 125.389C1701.64 104.408 1815.61 169.915 1922.54 233.036" stroke="url(#paint7_linear_6_10303)" stroke-miterlimit="10"/>
<path d="M0.330078 94.5333C87.6483 31.4888 170.943 17.228 263.925 75.8866C330.74 118.027 392.506 175.121 452.299 226.598C502.224 269.586 558.377 337.067 628.242 297.979C665.661 277.049 696.8 239.731 726.607 209.542C790.064 145.241 851.856 79.3749 917.159 16.9203C984.82 -47.7914 1062.27 -94.4976 1134.29 -12.7296C1188.06 48.3143 1225.3 145.677 1317.69 154.5C1399.11 162.271 1487.84 130.416 1567.93 118.002C1695.92 98.1754 1808.54 143.445 1922.48 198.718" stroke="url(#paint8_linear_6_10303)" stroke-miterlimit="10"/>
<path d="M0.330078 59.6253C94.927 -4.06044 181.912 -10.8829 276.714 55.7524C348.245 106.024 412.522 169.556 480.542 224.649C527.315 262.506 579.06 314.419 637.52 270.919C676.169 242.167 707.718 198.846 739.806 163.554C794.062 103.921 849.678 45.0825 909.368 -9.13888C982.513 -75.5946 1061.84 -106.989 1135.49 -26.8878C1189.42 31.7451 1230.73 123.26 1319.33 133.186C1403.19 142.573 1493.86 120.541 1576.93 109.127C1699.08 92.353 1807.79 119.669 1922.51 162.169" stroke="url(#paint9_linear_6_10303)" stroke-miterlimit="10"/>
<path d="M0.330078 23.3836C108.177 -44.0981 199.852 -36.9164 298.857 42.1842C373.976 102.202 437.998 172.043 516.294 228.676C570.013 267.508 608.739 289.438 657.767 235.319C741.087 143.343 808.568 38.5164 906.19 -40.7894C977.848 -98.9862 1056.68 -120.685 1128.09 -52.9469C1188.42 4.27538 1229.01 92.1222 1316.1 112.744C1396.5 131.749 1497.4 113 1578.23 101.971C1697.54 85.6844 1805.21 95.2513 1922.54 124.183" stroke="url(#paint10_linear_6_10303)" stroke-miterlimit="10"/>
<path d="M0.330078 -13.5762C121.094 -84.0845 219.433 -61.1802 321.257 29.0776C394.198 93.7379 454.862 168.607 537.644 221.725C598.41 260.737 630.395 267.636 671.966 205.515C737.832 107.101 804.135 6.50672 900.09 -66.0791C977.669 -124.789 1056.27 -137.972 1132.08 -70.2855C1195.21 -13.9096 1240.14 76.7841 1329.4 96.7388C1408.57 114.436 1500.96 106.024 1580.77 95.1486C1696.64 79.349 1805.49 72.2187 1922.54 85.2738" stroke="url(#paint11_linear_6_10303)" stroke-miterlimit="10"/>
<path d="M0.330078 -50.6642C131.961 -123.378 234.939 -87.5471 339.275 11.9442C413.112 82.3499 473.981 168.35 564.887 218.262C632.369 255.325 656.05 236.063 688.24 172.531C739.447 71.5005 804.212 -30.607 899.065 -96.4215C979.361 -152.156 1060.58 -153.875 1136.01 -89.8298C1201.8 -33.9413 1249.72 54.3928 1337.86 79.1694C1526.9 132.314 1732.62 52.8796 1922.54 46.2879" stroke="url(#paint12_linear_6_10303)" stroke-miterlimit="10"/>
<path d="M0.330078 -87.3161C65.8123 -122.224 127.373 -142.948 200.647 -117.53C261.26 -96.4983 310.903 -52.3569 355.37 -7.39474C428.72 66.8326 491.434 166.709 589.158 210.824C662.457 243.911 679.808 199.334 704.54 137.136C744.855 35.6694 805.724 -68.2848 900.833 -127.687C1108.12 -257.187 1182.93 4.83969 1347.86 61.6516C1540.46 128.005 1734.19 44.2874 1922.54 7.78929" stroke="url(#paint13_linear_6_10303)" stroke-miterlimit="10"/>
<path d="M0.330078 -122.942C68.6316 -159.107 131.577 -179.267 206.183 -151.797C268.769 -128.764 319.361 -81.6991 364.699 -34.0182C435.999 40.953 509.734 170.735 616.094 200.59C690.547 221.494 702.285 151.781 721.148 95.6617C754.158 -2.57283 811.055 -110.887 906.241 -162.852C1103.84 -270.73 1203.36 -28.1703 1352.55 40.3887C1548.27 130.339 1737.8 38.106 1922.51 -29.5553" stroke="url(#paint14_linear_6_10303)" stroke-miterlimit="10"/>
<path d="M0.330078 -156.927C69.2979 -194.476 131.423 -214.867 207.336 -188.269C270.281 -166.211 321.719 -116.992 366.467 -69.0285C439.074 8.81525 516.91 156.68 629.806 178.738C706.539 193.742 717.303 117.027 734.065 59.4201C762.846 -39.4043 814.668 -148.796 914.135 -194.758C1112.02 -286.196 1218.74 -53.3316 1364.69 21.973C1440.68 61.1642 1539.07 81.2472 1623.73 67.6021C1731.04 50.3148 1829.17 -13.3196 1922.54 -64.9504" stroke="url(#paint15_linear_6_10303)" stroke-miterlimit="10"/>
<path d="M0.330078 -188.731C73.783 -231.231 144.776 -255.725 226.097 -218.996C287.119 -191.424 335.533 -140.742 379.282 -91.5481C444.841 -17.8337 527.469 137.469 637.751 149.114C720.763 157.886 731.246 67.166 749.032 5.91694C776.532 -88.7524 826.047 -190.244 925.719 -226.768C1122.11 -298.764 1235.68 -82.8788 1377.38 1.47976C1448.99 44.1079 1542.58 73.2961 1626.34 62.8571C1738.54 48.8529 1835.65 -32.4022 1922.48 -97.9346" stroke="url(#paint16_linear_6_10303)" stroke-miterlimit="10"/>
<path d="M0.330078 -217.74C69.6823 -261.958 137.958 -292.736 219.894 -259.624C285.556 -233.078 337.839 -176.727 382.946 -124.071C447.429 -48.7917 528.52 105.767 643.082 108.486C724.761 110.41 739.883 18.3822 759.156 -43.0721C788.962 -138.024 836.094 -230.128 940.635 -256.982C1140.82 -308.433 1251.98 -111.041 1395.22 -16.3461C1465.34 30.0267 1558.86 68.2689 1644.28 55.9319C1756 39.7732 1845.75 -53.152 1922.51 -127.687" stroke="url(#paint17_linear_6_10303)" stroke-miterlimit="10"/>
<path d="M0.330078 -243.363C63.9927 -289.556 130.116 -328.26 211.078 -301.124C274.177 -279.989 323.871 -228.23 366.339 -179.138C435.896 -98.7555 505.864 44.236 625.603 53.3669C716.637 60.2921 740.293 -28.2472 766.486 -98.2938C802.212 -193.861 852.01 -274.782 961.42 -289.582C1155.38 -315.82 1267.15 -148.924 1401.91 -43.8673C1469.47 8.78952 1560.94 59.2149 1649.33 50.5969C1766.58 39.1576 1852.88 -69.952 1922.51 -153.592" stroke="url(#paint18_linear_6_10303)" stroke-miterlimit="10"/>
<path d="M0.330078 -263.574C63.6851 -307.818 129.014 -344.239 208.361 -318.385C270.153 -298.251 319.335 -248.775 361.29 -201.171C428.874 -124.532 500.405 22.5886 616.709 26.6155C706.642 29.719 737.422 -49.9972 769.664 -120.069C811.003 -209.866 866.952 -292.07 973.056 -306.407C1160.23 -331.697 1277.14 -175.778 1409.98 -76.0563C1475.15 -27.1442 1567.09 22.6143 1650.79 20.9727C1767.81 18.6644 1854.49 -92.7279 1922.51 -174.034" stroke="url(#paint19_linear_6_10303)" stroke-miterlimit="10"/>
<defs>
<linearGradient id="paint0_linear_6_10303" x1="961.42" y1="158.397" x2="961.42" y2="472.325" gradientUnits="userSpaceOnUse">
<stop stop-color="#333333"/>
<stop offset="1" stop-color="#333333" stop-opacity="0"/>
</linearGradient>
<linearGradient id="paint1_linear_6_10303" x1="961.407" y1="121.147" x2="961.407" y2="460.924" gradientUnits="userSpaceOnUse">
<stop stop-color="#333333"/>
<stop offset="1" stop-color="#333333" stop-opacity="0"/>
</linearGradient>
<linearGradient id="paint2_linear_6_10303" x1="961.42" y1="85.4761" x2="961.42" y2="449.208" gradientUnits="userSpaceOnUse">
<stop stop-color="#333333"/>
<stop offset="1" stop-color="#333333" stop-opacity="0"/>
</linearGradient>
<linearGradient id="paint3_linear_6_10303" x1="961.42" y1="51.3044" x2="961.42" y2="436.902" gradientUnits="userSpaceOnUse">
<stop stop-color="#333333"/>
<stop offset="1" stop-color="#333333" stop-opacity="0"/>
</linearGradient>
<linearGradient id="paint4_linear_6_10303" x1="961.433" y1="17.4487" x2="961.433" y2="423.387" gradientUnits="userSpaceOnUse">
<stop stop-color="#333333"/>
<stop offset="1" stop-color="#333333" stop-opacity="0"/>
</linearGradient>
<linearGradient id="paint5_linear_6_10303" x1="961.42" y1="-6.19531" x2="961.42" y2="397.968" gradientUnits="userSpaceOnUse">
<stop stop-color="#333333"/>
<stop offset="1" stop-color="#333333" stop-opacity="0"/>
</linearGradient>
<linearGradient id="paint6_linear_6_10303" x1="961.433" y1="-22.1216" x2="961.433" y2="364.95" gradientUnits="userSpaceOnUse">
<stop stop-color="#333333"/>
<stop offset="1" stop-color="#333333" stop-opacity="0"/>
</linearGradient>
<linearGradient id="paint7_linear_6_10303" x1="961.433" y1="-37.9233" x2="961.433" y2="335.564" gradientUnits="userSpaceOnUse">
<stop stop-color="#333333"/>
<stop offset="1" stop-color="#333333" stop-opacity="0"/>
</linearGradient>
<linearGradient id="paint8_linear_6_10303" x1="961.407" y1="-56.3518" x2="961.407" y2="309.719" gradientUnits="userSpaceOnUse">
<stop stop-color="#333333"/>
<stop offset="1" stop-color="#333333" stop-opacity="0"/>
</linearGradient>
<linearGradient id="paint9_linear_6_10303" x1="961.42" y1="-74.4746" x2="961.42" y2="287.442" gradientUnits="userSpaceOnUse">
<stop stop-color="#333333"/>
<stop offset="1" stop-color="#333333" stop-opacity="0"/>
</linearGradient>
<linearGradient id="paint10_linear_6_10303" x1="961.433" y1="-94.9316" x2="961.433" y2="267.652" gradientUnits="userSpaceOnUse">
<stop stop-color="#333333"/>
<stop offset="1" stop-color="#333333" stop-opacity="0"/>
</linearGradient>
<linearGradient id="paint11_linear_6_10303" x1="961.433" y1="-115.804" x2="961.433" y2="251.626" gradientUnits="userSpaceOnUse">
<stop stop-color="#333333"/>
<stop offset="1" stop-color="#333333" stop-opacity="0"/>
</linearGradient>
<linearGradient id="paint12_linear_6_10303" x1="961.433" y1="-138.062" x2="961.433" y2="237.007" gradientUnits="userSpaceOnUse">
<stop stop-color="#333333"/>
<stop offset="1" stop-color="#333333" stop-opacity="0"/>
</linearGradient>
<linearGradient id="paint13_linear_6_10303" x1="961.433" y1="-163.207" x2="961.433" y2="222.063" gradientUnits="userSpaceOnUse">
<stop stop-color="#333333"/>
<stop offset="1" stop-color="#333333" stop-opacity="0"/>
</linearGradient>
<linearGradient id="paint14_linear_6_10303" x1="961.42" y1="-190.107" x2="961.42" y2="204.385" gradientUnits="userSpaceOnUse">
<stop stop-color="#333333"/>
<stop offset="1" stop-color="#333333" stop-opacity="0"/>
</linearGradient>
<linearGradient id="paint15_linear_6_10303" x1="961.433" y1="-215.716" x2="961.433" y2="180.644" gradientUnits="userSpaceOnUse">
<stop stop-color="#333333"/>
<stop offset="1" stop-color="#333333" stop-opacity="0"/>
</linearGradient>
<linearGradient id="paint16_linear_6_10303" x1="961.407" y1="-241.23" x2="961.407" y2="149.705" gradientUnits="userSpaceOnUse">
<stop stop-color="#333333"/>
<stop offset="1" stop-color="#333333" stop-opacity="0"/>
</linearGradient>
<linearGradient id="paint17_linear_6_10303" x1="961.42" y1="-273.544" x2="961.42" y2="108.516" gradientUnits="userSpaceOnUse">
<stop stop-color="#333333"/>
<stop offset="1" stop-color="#333333" stop-opacity="0"/>
</linearGradient>
<linearGradient id="paint18_linear_6_10303" x1="961.42" y1="-310.109" x2="961.42" y2="53.7493" gradientUnits="userSpaceOnUse">
<stop stop-color="#333333"/>
<stop offset="1" stop-color="#333333" stop-opacity="0"/>
</linearGradient>
<linearGradient id="paint19_linear_6_10303" x1="961.42" y1="-327.004" x2="961.42" y2="26.7033" gradientUnits="userSpaceOnUse">
<stop stop-color="#333333"/>
<stop offset="1" stop-color="#333333" stop-opacity="0"/>
</linearGradient>
</defs>
</svg>
